<svg width="18" height="17" viewBox="0 0 18 17" fill="none" xmlns="http://www.w3.org/2000/svg">
<path d="M8.56663 1.91584C8.60187 1.82987 8.6619 1.75632 8.73906 1.70456C8.81623 1.65279 8.90705 1.62515 8.99996 1.62515C9.09288 1.62515 9.1837 1.65279 9.26086 1.70456C9.33803 1.75632 9.39805 1.82987 9.4333 1.91584L11.2041 6.17501C11.2373 6.2547 11.2918 6.32371 11.3616 6.37443C11.4314 6.42516 11.5139 6.45563 11.6 6.46251L16.1983 6.83084C16.6141 6.86417 16.7825 7.38334 16.4658 7.65417L12.9625 10.6558C12.897 10.7118 12.8482 10.7848 12.8215 10.8666C12.7947 10.9485 12.791 11.0362 12.8108 11.12L13.8816 15.6075C13.9032 15.6975 13.8975 15.7919 13.8654 15.8788C13.8333 15.9656 13.7762 16.041 13.7013 16.0953C13.6264 16.1497 13.5371 16.1807 13.4446 16.1844C13.3521 16.188 13.2606 16.1642 13.1816 16.1158L9.24413 13.7117C9.17058 13.6668 9.0861 13.6431 8.99996 13.6431C8.91383 13.6431 8.82935 13.6668 8.7558 13.7117L4.8183 16.1167C4.73934 16.165 4.64784 16.1888 4.55534 16.1852C4.46285 16.1815 4.37351 16.1506 4.2986 16.0962C4.2237 16.0418 4.1666 15.9664 4.13451 15.8796C4.10241 15.7928 4.09677 15.6984 4.1183 15.6083L5.18913 11.12C5.20899 11.0362 5.20534 10.9485 5.17858 10.8666C5.15182 10.7847 5.10299 10.7118 5.03746 10.6558L1.53413 7.65417C1.46397 7.59385 1.41322 7.51413 1.38825 7.42503C1.36329 7.33594 1.36522 7.24146 1.39381 7.15346C1.4224 7.06546 1.47637 6.98788 1.54893 6.93048C1.6215 6.87308 1.70942 6.83841 1.80163 6.83084L6.39996 6.46251C6.486 6.45563 6.56848 6.42516 6.63832 6.37443C6.70816 6.32371 6.76265 6.2547 6.7958 6.17501L8.56663 1.91667V1.91584Z" stroke="#8F8F8F" stroke-width="1.5" stroke-linecap="round" stroke-linejoin="round"/>
</svg>
